HIERARCHY
ROOT root
{
	OFFSET 0.000000 0.000000 0.000000
	CHANNELS 6 Xposition Yposition Zposition Zrotation Yrotation Xrotation
	JOINT lhip
	{
		OFFSET 0.058581 -0.082280 -0.017664
		CHANNELS 3 Zrotation Yrotation Xrotation
		JOINT lknee
		{
			OFFSET 0.043451 -0.386469 0.008037
			CHANNELS 3 Zrotation Yrotation Xrotation
			JOINT lankle
			{
				OFFSET -0.014790 -0.426874 -0.037428
				CHANNELS 3 Zrotation Yrotation Xrotation
				JOINT ltoe
				{
					OFFSET 0.041054 -0.060286 0.122042
					CHANNELS 3 Zrotation Yrotation Xrotation
					End Site
					{
						OFFSET 0.000000 0.000000 0.000000
					}
				}
			}
		}
	}
	JOINT rhip
	{
		OFFSET -0.060310 -0.090513 -0.013543
		CHANNELS 3 Zrotation Yrotation Xrotation
		JOINT rknee
		{
			OFFSET -0.043257 -0.383688 -0.004843
			CHANNELS 3 Zrotation Yrotation Xrotation
			JOINT rankle
			{
				OFFSET 0.019056 -0.420046 -0.034562
				CHANNELS 3 Zrotation Yrotation Xrotation
				JOINT rtoe
				{
					OFFSET -0.034840 -0.062106 0.130323
					CHANNELS 3 Zrotation Yrotation Xrotation
					End Site
					{
						OFFSET 0.000000 0.000000 0.000000
					}
				}
			}
		}
	}
	JOINT lowerback
	{
		OFFSET 0.004439 0.124404 -0.038385
		CHANNELS 3 Zrotation Yrotation Xrotation
		JOINT upperback
		{
			OFFSET 0.004488 0.137956 0.026820
			CHANNELS 3 Zrotation Yrotation Xrotation
			JOINT chest
			{
				OFFSET -0.002265 0.056032 0.002855
				CHANNELS 3 Zrotation Yrotation Xrotation
				JOINT lowerneck
				{
					OFFSET -0.013390 0.211636 -0.033468
					CHANNELS 3 Zrotation Yrotation Xrotation
					JOINT upperneck
					{
						OFFSET 0.010113 0.088937 0.050410
						CHANNELS 3 Zrotation Yrotation Xrotation
						End Site
						{
							OFFSET 0.000000 0.000000 0.000000
						}
					}
				}
				JOINT lclavicle
				{
					OFFSET 0.071702 0.114000 -0.018898
					CHANNELS 3 Zrotation Yrotation Xrotation
					JOINT lshoulder
					{
						OFFSET 0.122921 0.045205 -0.019046
						CHANNELS 3 Zrotation Yrotation Xrotation
						JOINT lelbow
						{
							OFFSET 0.255332 -0.015649 -0.022946
							CHANNELS 3 Zrotation Yrotation Xrotation
							JOINT lwrist
							{
								OFFSET 0.265709 0.012698 -0.007375
								CHANNELS 3 Zrotation Yrotation Xrotation
								End Site
								{
									OFFSET 0.000000 0.000000 0.000000
								}
							}
						}
					}
				}
				JOINT rclavicle
				{
					OFFSET -0.082954 0.112472 -0.023707
					CHANNELS 3 Zrotation Yrotation Xrotation
					JOINT rshoulder
					{
						OFFSET -0.113228 0.046853 -0.008472
						CHANNELS 3 Zrotation Yrotation Xrotation
						JOINT relbow
						{
							OFFSET -0.260127 -0.014369 -0.031269
							CHANNELS 3 Zrotation Yrotation Xrotation
							JOINT rwrist
							{
								OFFSET -0.269108 0.006794 -0.006027
								CHANNELS 3 Zrotation Yrotation Xrotation
								End Site
								{
									OFFSET 0.000000 0.000000 0.000000
								}
							}
						}
					}
				}
			}
		}
	}
}
MOTION
Frames: 7
Frame Time: 0.033333
-1.305160 0.877215 0.412076 89.105954 -0.334326 74.571014 24.941342 10.501082 -70.652277 -11.448846 23.645056 149.344281 9.158450 -3.005991 -34.734107 0.000000 -0.000000 0.000000 -18.276408 -5.275505 -75.419151 5.138234 -15.980871 154.134277 -1.420558 2.956543 -35.207441 0.000000 -0.000000 0.000000 -2.082394 -2.332020 40.166882 5.488804 0.179844 -10.292419 -2.810347 0.431008 2.507051 1.010801 8.920597 -9.251367 -2.056590 -4.933518 23.341817 -16.970793 -19.261416 -3.758181 -32.961227 -18.490187 3.540718 17.825197 -45.467818 -21.492911 43.027869 -13.000663 -22.360660 22.418062 21.312234 1.571747 25.504891 29.525091 1.360138 -13.733529 42.316305 -2.732083 -20.539452 15.330791 -2.659615 
-1.303432 0.878000 0.406904 88.957204 -0.197064 74.312130 25.210633 10.785520 -70.716477 -11.854662 23.971367 150.137408 8.870202 -3.318625 -35.316138 0.000000 -0.000000 0.000000 -18.645897 -5.373744 -75.545067 5.449124 -16.183500 154.757026 -1.200344 3.389040 -35.685426 0.000000 -0.000000 0.000000 -2.013832 -2.528890 40.582928 5.484768 0.486528 -10.548080 -2.923041 0.588397 2.442553 1.141816 9.378767 -9.350461 -1.923897 -4.921880 22.703119 -18.350302 -18.751929 -2.916098 -32.888850 -16.533579 3.769290 13.417871 -41.408918 -17.765077 42.078735 -14.237046 -19.574788 23.610172 20.450663 2.068940 26.284350 27.701562 1.646181 -10.839806 39.847561 -0.222133 -18.955517 15.307436 -1.466707 
-1.300972 0.878243 0.403887 88.953554 -0.092155 74.689452 24.767180 11.079915 -71.534616 -11.789153 24.243259 150.490205 9.128589 -1.687029 -34.707465 0.000000 -0.000000 0.000000 -18.519081 -6.017665 -76.216509 5.588764 -16.635290 155.060359 -1.445971 2.679958 -35.347272 0.000000 -0.000000 0.000000 -1.840783 -2.339098 41.706133 5.164778 1.205473 -14.022654 -2.543829 0.075293 3.666426 1.330383 8.618450 -8.923187 -1.996283 -4.315232 22.654566 -19.619742 -17.761108 -1.769578 -32.449338 -14.755402 3.859891 9.336071 -36.850737 -12.620565 40.874715 -16.572579 -17.375533 24.222991 19.174462 2.631505 26.706106 25.721191 2.173370 -8.748658 37.134255 2.783335 -16.526178 15.901320 -0.019369 
-1.301747 0.878863 0.402389 88.567676 -0.118596 74.381890 24.960905 11.000418 -71.350600 -12.140557 24.450462 150.666073 8.884241 -1.685527 -34.412917 0.000000 -0.000000 0.000000 -18.095924 -5.888580 -76.264598 5.777908 -17.038120 154.928072 -1.949705 1.351218 -35.415564 0.000000 -0.000000 0.000000 -2.039358 -2.348648 41.589354 5.464352 0.803679 -11.538783 -2.919207 0.511856 2.506371 1.735950 9.892142 -10.120811 -1.959269 -4.493965 22.709669 -19.843813 -17.490759 -2.381996 -31.331686 -11.919522 4.451699 5.308876 -31.382790 -7.990356 39.255546 -17.845681 -14.347003 24.764793 19.261770 2.207135 26.401668 23.748403 2.730034 -7.082053 33.463546 4.179705 -15.049587 15.704361 0.845910 
-1.301432 0.878889 0.404331 88.560065 0.020659 74.594559 25.150377 11.140439 -71.458360 -11.981421 23.990833 150.320264 8.780501 -2.148989 -34.330374 0.000000 -0.000000 0.000000 -17.940492 -6.153224 -76.083298 5.745822 -17.196448 154.536518 -2.094060 1.112711 -35.558900 0.000000 -0.000000 0.000000 -1.940287 -2.309482 41.550064 5.477879 0.681007 -11.527329 -2.795530 0.540703 2.298412 1.939643 9.782031 -9.589525 -2.005652 -4.763049 22.553733 -20.179094 -16.980040 -2.167394 -31.014134 -10.585211 4.256835 3.598949 -28.013846 -6.473856 37.468909 -18.761186 -12.610006 24.895491 18.728424 2.186750 26.377757 22.277809 2.633210 -5.979271 31.906820 5.114566 -14.205508 16.143016 0.887080 
-1.301883 0.879870 0.409411 88.408848 -0.068612 75.265553 24.467694 10.982966 -71.602740 -12.103411 24.026929 149.653816 8.543017 -1.819050 -34.208236 0.000000 -0.000000 0.000000 -18.218564 -6.012036 -76.188645 5.604403 -16.928315 153.826304 -1.864079 1.548851 -35.662434 0.000000 -0.000000 0.000000 -1.989658 -2.131350 41.241026 5.438371 0.790093 -12.101418 -2.870582 0.440023 2.607429 2.586171 10.140353 -9.456612 -2.257687 -4.937133 23.123671 -20.639446 -15.876576 -1.956714 -30.670149 -9.115710 4.099295 2.207708 -24.751487 -5.569532 35.341686 -20.149349 -10.596008 25.375989 17.335854 1.831195 26.354999 20.964136 2.893354 -4.517880 30.292850 6.191846 -14.390525 15.985815 1.344261 
-1.301633 0.880620 0.416733 88.257177 0.055812 75.614202 24.272377 11.067883 -71.191691 -12.191892 23.825514 148.769414 8.609873 -1.805702 -33.724778 0.000000 -0.000000 0.000000 -17.900747 -6.054180 -75.724838 5.821790 -17.182280 152.605133 -1.969788 1.069826 -35.292313 0.000000 -0.000000 0.000000 -1.929966 -2.218009 41.255050 5.321929 0.985901 -12.427457 -2.878253 0.345682 2.609826 2.810708 9.879630 -9.332124 -2.086029 -4.542640 23.677055 -21.406807 -14.378346 -1.842327 -30.378328 -7.514797 3.681458 1.500455 -23.215405 -5.379413 34.394722 -20.603104 -8.776357 25.610001 16.004155 1.702438 26.814631 19.339325 3.069827 -4.394710 29.749530 5.772038 -12.094202 16.296410 1.933851 
